<svg xmlns="http://www.w3.org/2000/svg" fill="none" viewBox="0 0 54 40"><path fill="#1434CB" d="M20.488 11.598l-7.036 16.835H8.846L5.352 14.981c-.206-.826-.397-1.127-1.032-1.477-1.064-.556-2.795-1.112-4.32-1.43l.111-.508h7.417c.953 0 1.795.636 2.017 1.732l1.827 9.751 4.542-11.482h4.59l-.016.031zm18.09 11.356c0-4.447-6.162-4.701-6.114-6.686 0-.604.587-1.255 1.842-1.43a8.26 8.26 0 014.304.763l.762-3.574a11.752 11.752 0 00-4.081-.746c-4.304 0-7.338 2.287-7.37 5.574-.032 2.43 2.16 3.78 3.812 4.606 1.715.81 2.287 1.35 2.271 2.08 0 1.128-1.35 1.637-2.605 1.652-2.207.032-3.478-.587-4.478-1.064l-.794 3.701c1.016.46 2.89.873 4.844.89 4.59 0 7.591-2.256 7.607-5.766zm11.388 5.495H54L50.474 11.6h-3.716c-.842 0-1.557.476-1.859 1.238l-6.543 15.628h4.574l.905-2.51h5.607l.524 2.51v-.016zm-4.876-5.971l2.303-6.337 1.318 6.353h-3.605l-.016-.016zm-18.36-10.88l-3.605 16.867h-4.352l3.605-16.867h4.352z"/></svg>